<svg width="205" height="37" viewBox="0 0 205 37" fill="none" xmlns="http://www.w3.org/2000/svg">
<path fill-rule="evenodd" clip-rule="evenodd" d="M104.089 7.10036C104.089 6.45349 104.089 5.80661 103.971 5.15973C103.618 2.33699 101.736 0.455159 98.9724 0.21993C96.6201 -0.0152981 94.6207 0.690387 93.3269 2.86625C92.6213 4.04239 92.386 5.39496 92.386 6.74753V16.6271V17.2152C91.9744 16.8623 91.7391 16.5095 91.5039 16.0979C89.7599 13.4403 87.84 10.9001 85.9305 8.37363C85.1357 7.32203 84.3427 6.27282 83.5649 5.21854C83.327 4.90123 83.0976 4.57537 82.8686 4.25018C82.2489 3.37 81.6328 2.49479 80.8598 1.80772C78.8604 -0.0152998 76.5669 -0.368143 74.1558 0.631579C71.8035 1.6313 70.8626 3.57193 70.8626 6.04183V29.8587C70.8626 30.2116 70.8626 30.5644 70.9214 30.9173C71.1566 34.5045 73.0973 36.5627 76.5081 36.798C79.272 36.9744 81.5067 35.3866 82.2712 32.7403C82.5064 31.917 82.624 31.0937 82.624 30.2116V20.9788C82.624 20.9364 82.6206 20.8906 82.6171 20.8431C82.606 20.6928 82.5935 20.5248 82.6828 20.3908C82.7001 20.408 82.7173 20.4202 82.7316 20.4303C82.766 20.4546 82.7832 20.4668 82.7417 20.5084C84.5215 23.4451 86.6717 26.1125 88.8101 28.7653C89.4978 29.6185 90.1844 30.4702 90.857 31.3289C91.11 31.6521 91.3562 31.9787 91.6014 32.3038C92.3821 33.3392 93.1516 34.3599 94.0914 35.2102C96.0909 37.0332 98.4432 37.4448 100.913 36.3863C103.207 35.3866 104.089 33.446 104.089 30.9761V7.10036ZM185.831 0.278737C187.948 0.690387 189.241 2.10176 189.829 4.1012C190.123 5.04211 190.182 6.04184 190.182 6.98275V30.9173C190.182 33.3283 189.3 35.269 187.007 36.2687C184.654 37.2684 182.361 36.9744 180.362 35.3278C180.067 35.0926 179.715 34.7397 179.479 34.4457C178.363 32.9982 177.217 31.5726 176.07 30.1458C173.956 27.5147 171.838 24.8796 169.894 22.0962C169.552 21.6564 169.291 21.2166 169.01 20.7431C168.953 20.6467 168.895 20.549 168.835 20.4496V21.0965C168.835 22.7652 168.821 24.4193 168.806 26.0807C168.791 27.7565 168.776 29.4397 168.776 31.1525C168.776 32.0934 168.482 32.9755 168.071 33.8576C167.071 35.8571 164.954 37.0332 162.661 36.8568C159.367 36.6215 157.368 34.5045 157.133 31.1525C157.133 31.0643 157.118 30.9614 157.103 30.8585C157.089 30.7555 157.074 30.6526 157.074 30.5644C157.074 27.7831 157.067 24.9952 157.061 22.2051C157.048 16.6184 157.035 11.023 157.074 5.45377C157.074 3.33671 158.074 1.69011 160.014 0.749196C162.19 -0.250526 164.307 -0.132914 166.365 1.21965C166.953 1.6313 167.483 2.10176 167.894 2.63102C168.746 3.77668 169.601 4.91418 170.456 6.04997C172.846 9.22844 175.227 12.3935 177.48 15.6862C177.833 16.2155 178.127 16.6859 178.538 17.3916V16.5683V6.45349C178.538 4.8657 178.891 3.33671 179.95 2.04295C181.538 0.161122 183.596 -0.132913 185.831 0.278737ZM28.7567 30.1528C33.4025 24.6837 34.1669 18.4501 31.8147 11.9225C29.5212 5.57138 24.5226 2.33699 18.0538 1.10204C16.3872 0.76872 14.7206 0.789634 13.1586 0.809236C12.5159 0.817301 11.891 0.825144 11.291 0.808002H6.29236C2.70513 0.866809 0 3.68955 0 7.21798V29.7411C0 32.8579 2.17587 35.4454 5.29264 35.9747C5.46907 36.0335 5.70429 36.0923 5.88072 36.0923C7.16154 36.0734 8.44236 36.1029 9.72125 36.1323C12.4352 36.1946 15.1405 36.2568 17.8186 35.8571C22.1115 35.269 25.934 33.5048 28.7567 30.1528ZM15.8779 12.2166C19.1711 12.6282 21.347 15.2158 21.2882 18.509C21.2294 21.9198 19.0535 24.3309 15.8191 24.7425C15.0473 24.8528 14.2754 24.8482 13.5036 24.8436C13.0405 24.8408 12.5774 24.8381 12.1143 24.8601C11.6922 24.8601 11.6961 24.6707 11.7014 24.4194C11.702 24.3907 11.7026 24.3611 11.7026 24.3309V18.509V18.5089C11.7026 16.5683 11.7026 14.6276 11.6438 12.687C11.6438 12.2166 11.7614 12.0402 12.2319 12.099C12.6952 12.121 13.1503 12.1183 13.6033 12.1155C14.3577 12.1109 15.1063 12.1064 15.8779 12.2166ZM129.435 17.8621C129.14 18.2149 129.14 18.3913 129.435 18.7442C130.522 19.9497 131.61 21.1847 132.698 22.4196C133.786 23.6546 134.874 24.8895 135.962 26.0951C137.138 27.4476 137.785 28.9178 137.726 30.7408C137.609 34.5633 133.727 37.5625 130.199 36.5039C128.964 36.1511 128.023 35.4454 127.2 34.4457C126.435 33.5047 125.664 32.5703 124.893 31.6359C123.351 29.7672 121.809 27.8984 120.319 25.9775C120.233 25.8914 120.179 25.8053 120.11 25.6961C120.084 25.6561 120.057 25.6131 120.025 25.5658C119.85 25.6534 119.871 25.7735 119.893 25.902C119.9 25.9461 119.908 25.9912 119.908 26.0363C119.908 26.4644 119.911 26.8889 119.915 27.3115C119.926 28.5722 119.937 29.8164 119.849 31.0937C119.731 34.5045 117.32 36.9156 114.027 36.8568C110.675 36.8568 108.205 34.4457 108.205 31.0937C108.146 22.6843 108.146 14.2748 108.205 5.86542C108.264 2.45461 110.734 0.102318 114.086 0.102318C117.379 0.161125 119.79 2.45461 119.908 5.86542C119.908 6.7109 119.893 7.57083 119.879 8.43804C119.864 9.32009 119.849 10.2097 119.849 11.0992C120.737 9.96394 121.636 8.84935 122.533 7.73808C123.772 6.20151 125.006 4.6713 126.2 3.10148C127.376 1.5725 128.788 0.455158 130.787 0.278737C134.257 -0.0741062 137.55 3.10148 137.315 6.5711C137.197 8.1589 136.55 9.51145 135.55 10.7464C133.551 13.1575 131.493 15.5098 129.435 17.8621ZM66.9225 15.0968V15.0981C66.8994 15.9982 66.9126 16.9889 66.9264 18.031C66.9479 19.6443 66.9709 21.381 66.8637 23.0959C66.4521 30.1528 61.2182 35.7394 54.1614 36.6215C51.0446 37.0332 47.9866 36.8568 45.0463 35.6218C39.8124 33.5048 36.9309 29.5059 36.1076 23.978C36.0277 23.499 36.0021 23.02 35.9755 22.5226C35.9629 22.2872 35.9501 22.0477 35.9312 21.8021C35.9312 20.0336 35.9246 18.2715 35.918 16.5139C35.905 13.0116 35.892 9.52673 35.9312 6.04183C35.99 2.51341 38.4011 0.0435072 41.8119 0.0435072C45.2227 0.102314 47.6338 2.57222 47.6338 6.15945V21.0377C47.6338 22.6843 48.2219 24.0368 49.7508 24.8013C52.1619 26.0363 54.8083 24.3309 55.1023 21.5669C55.1611 21.2141 55.1611 20.8612 55.1611 20.5084V5.98303C55.1611 2.80745 57.2782 0.455161 60.3949 0.102318C63.4529 -0.191718 66.0992 1.69011 66.7461 4.68927C66.8637 5.15973 66.8637 5.63019 66.8637 6.15945C66.9225 8.98183 66.9225 11.7454 66.9225 15.0968ZM144.666 0.572772C147.018 -0.426949 149.253 -0.132911 151.193 1.5725C152.369 2.57222 152.957 3.98359 152.957 5.51257C153.016 14.0984 153.016 22.6843 152.957 31.2701C152.899 34.5045 150.252 36.9156 147.077 36.798C143.725 36.6804 141.314 34.3869 141.314 31.0937C141.372 26.8607 141.372 22.6864 141.372 18.3947V18.3913C141.372 16.9996 141.366 15.6078 141.359 14.216C141.346 11.4325 141.333 8.64896 141.372 5.86542C141.431 3.45433 142.431 1.57249 144.666 0.572772ZM194.122 4.3364C193.828 5.74777 193.77 7.15914 193.828 8.57051C193.828 10.0995 193.887 11.6873 194.475 13.1575C195.299 15.4509 197.71 16.5683 200.003 15.8038C201.415 15.3333 202.238 14.2748 202.826 12.981C203.767 10.7464 204.473 8.39409 204.708 5.983C205.002 3.04264 203.12 0.690354 200.238 0.219897C197.239 -0.25056 194.769 1.39604 194.122 4.3364Z" fill="#A7A7A7"/>
</svg>
